HIERARCHY
ROOT mixamorig:Hips
{
	OFFSET 0.000000 102.625267 -0.521241
	CHANNELS 6 Xposition Yposition Zposition Xrotation Yrotation Zrotation
	JOINT mixamorig:Spine
	{
		OFFSET 0.000000 5.645721 -0.031929
		CHANNELS 3 Xrotation Yrotation Zrotation
		JOINT mixamorig:Spine1
		{
			OFFSET 0.000000 6.586685 -0.037251
			CHANNELS 3 Xrotation Yrotation Zrotation
			JOINT mixamorig:Spine2
			{
				OFFSET 0.000000 7.527618 -0.042572
				CHANNELS 3 Xrotation Yrotation Zrotation
				JOINT mixamorig:Neck
				{
					OFFSET 0.000000 8.468590 -0.047894
					CHANNELS 3 Xrotation Yrotation Zrotation
					JOINT mixamorig:Head
					{
						OFFSET 0.000000 5.998901 -1.158958
						CHANNELS 3 Xrotation Yrotation Zrotation
						JOINT mixamorig:HeadTop_End
						{
							OFFSET 0.000000 21.748810 -4.201760
							CHANNELS 3 Xrotation Yrotation Zrotation
							End Site
							{
								OFFSET 0.000000 22.150970 0.000000
							}
						}
					}
				}
				JOINT mixamorig:LeftShoulder
				{
					OFFSET 3.414614 7.343132 -0.058928
					CHANNELS 3 Xrotation Yrotation Zrotation
					JOINT mixamorig:LeftArm
					{
						OFFSET 6.829548 -2.246910 -0.022071
						CHANNELS 3 Xrotation Yrotation Zrotation
						JOINT mixamorig:LeftForeArm
						{
							OFFSET 24.198503 -0.424179 0.257802
							CHANNELS 3 Xrotation Yrotation Zrotation
							JOINT mixamorig:LeftHand
							{
								OFFSET 21.584717 -0.002335 0.669575
								CHANNELS 3 Xrotation Yrotation Zrotation
								JOINT mixamorig:LeftHandThumb1
								{
									OFFSET 2.193897 -1.259628 1.956942
									CHANNELS 3 Xrotation Yrotation Zrotation
									JOINT mixamorig:LeftHandThumb2
									{
										OFFSET 1.755203 -1.007660 1.565605
										CHANNELS 3 Xrotation Yrotation Zrotation
										JOINT mixamorig:LeftHandThumb3
										{
											OFFSET 2.535126 -0.998764 1.490660
											CHANNELS 3 Xrotation Yrotation Zrotation
											JOINT mixamorig:LeftHandThumb4
											{
												OFFSET 2.398251 -0.721657 1.023775
												CHANNELS 3 Xrotation Yrotation Zrotation
												End Site
												{
													OFFSET 2.205696 -0.773872 1.362551
												}
											}
										}
									}
								}
								JOINT mixamorig:LeftHandIndex1
								{
									OFFSET 7.166248 -0.069405 2.369028
									CHANNELS 3 Xrotation Yrotation Zrotation
									JOINT mixamorig:LeftHandIndex2
									{
										OFFSET 2.989986 -0.015724 0.245918
										CHANNELS 3 Xrotation Yrotation Zrotation
										JOINT mixamorig:LeftHandIndex3
										{
											OFFSET 2.739197 -0.058952 0.219132
											CHANNELS 3 Xrotation Yrotation Zrotation
											JOINT mixamorig:LeftHandIndex4
											{
												OFFSET 2.326500 -0.032570 0.188458
												CHANNELS 3 Xrotation Yrotation Zrotation
												End Site
												{
													OFFSET 2.326485 -0.032578 0.188548
												}
											}
										}
									}
								}
								JOINT mixamorig:LeftHandMiddle1
								{
									OFFSET 7.394897 0.286369 0.654762
									CHANNELS 3 Xrotation Yrotation Zrotation
									JOINT mixamorig:LeftHandMiddle2
									{
										OFFSET 3.376106 0.152466 -0.003692
										CHANNELS 3 Xrotation Yrotation Zrotation
										JOINT mixamorig:LeftHandMiddle3
										{
											OFFSET 3.185104 -0.185410 -0.047914
											CHANNELS 3 Xrotation Yrotation Zrotation
											JOINT mixamorig:LeftHandMiddle4
											{
												OFFSET 2.742905 0.223846 0.010354
												CHANNELS 3 Xrotation Yrotation Zrotation
												End Site
												{
													OFFSET 2.742889 0.224251 0.006757
												}
											}
										}
									}
								}
								JOINT mixamorig:LeftHandRing1
								{
									OFFSET 7.508747 0.282753 -1.072900
									CHANNELS 3 Xrotation Yrotation Zrotation
									JOINT mixamorig:LeftHandRing2
									{
										OFFSET 2.821857 0.317802 -0.177266
										CHANNELS 3 Xrotation Yrotation Zrotation
										JOINT mixamorig:LeftHandRing3
										{
											OFFSET 2.672325 0.088310 -0.196165
											CHANNELS 3 Xrotation Yrotation Zrotation
											JOINT mixamorig:LeftHandRing4
											{
												OFFSET 2.272652 -0.053627 -0.183955
												CHANNELS 3 Xrotation Yrotation Zrotation
												End Site
												{
													OFFSET 2.272919 -0.054016 -0.180438
												}
											}
										}
									}
								}
								JOINT mixamorig:LeftHandPinky1
								{
									OFFSET 7.285820 0.522377 -2.660948
									CHANNELS 3 Xrotation Yrotation Zrotation
									JOINT mixamorig:LeftHandPinky2
									{
										OFFSET 2.466278 0.082008 -0.249570
										CHANNELS 3 Xrotation Yrotation Zrotation
										JOINT mixamorig:LeftHandPinky3
										{
											OFFSET 1.940475 0.021858 -0.202004
											CHANNELS 3 Xrotation Yrotation Zrotation
											JOINT mixamorig:LeftHandPinky4
											{
												OFFSET 1.645287 0.153595 -0.153405
												CHANNELS 3 Xrotation Yrotation Zrotation
												End Site
												{
													OFFSET 1.645088 0.153801 -0.155289
												}
											}
										}
									}
								}
							}
						}
					}
				}
				JOINT mixamorig:RightShoulder
				{
					OFFSET -3.414604 7.343132 -0.036860
					CHANNELS 3 Xrotation Yrotation Zrotation
					JOINT mixamorig:RightArm
					{
						OFFSET -6.829551 -2.246986 0.022068
						CHANNELS 3 Xrotation Yrotation Zrotation
						JOINT mixamorig:RightForeArm
						{
							OFFSET -24.198494 -0.424141 0.158696
							CHANNELS 3 Xrotation Yrotation Zrotation
							JOINT mixamorig:RightHand
							{
								OFFSET -21.584698 -0.002243 0.686977
								CHANNELS 3 Xrotation Yrotation Zrotation
								JOINT mixamorig:RightHandThumb1
								{
									OFFSET -2.242882 -1.296806 1.978855
									CHANNELS 3 Xrotation Yrotation Zrotation
									JOINT mixamorig:RightHandThumb2
									{
										OFFSET -1.794239 -1.037361 1.583064
										CHANNELS 3 Xrotation Yrotation Zrotation
										JOINT mixamorig:RightHandThumb3
										{
											OFFSET -2.504150 -0.962166 1.471556
											CHANNELS 3 Xrotation Yrotation Zrotation
											JOINT mixamorig:RightHandThumb4
											{
												OFFSET -2.346046 -0.743172 0.992235
												CHANNELS 3 Xrotation Yrotation Zrotation
												End Site
												{
													OFFSET -2.157112 -0.792709 1.326359
												}
											}
										}
									}
								}
								JOINT mixamorig:RightHandIndex1
								{
									OFFSET -7.174488 -0.001839 2.366265
									CHANNELS 3 Xrotation Yrotation Zrotation
									JOINT mixamorig:RightHandIndex2
									{
										OFFSET -2.935219 -0.016853 0.287245
										CHANNELS 3 Xrotation Yrotation Zrotation
										JOINT mixamorig:RightHandIndex3
										{
											OFFSET -2.786827 -0.129890 0.255971
											CHANNELS 3 Xrotation Yrotation Zrotation
											JOINT mixamorig:RightHandIndex4
											{
												OFFSET -2.343559 0.168816 0.256164
												CHANNELS 3 Xrotation Yrotation Zrotation
												End Site
												{
													OFFSET -2.344208 0.169510 0.249690
												}
											}
										}
									}
								}
								JOINT mixamorig:RightHandMiddle1
								{
									OFFSET -7.274693 0.327965 0.656181
									CHANNELS 3 Xrotation Yrotation Zrotation
									JOINT mixamorig:RightHandMiddle2
									{
										OFFSET -3.309677 0.091591 0.032863
										CHANNELS 3 Xrotation Yrotation Zrotation
										JOINT mixamorig:RightHandMiddle3
										{
											OFFSET -3.186844 -0.122513 0.000971
											CHANNELS 3 Xrotation Yrotation Zrotation
											JOINT mixamorig:RightHandMiddle4
											{
												OFFSET -2.671951 -0.322540 -0.031001
												CHANNELS 3 Xrotation Yrotation Zrotation
												End Site
												{
													OFFSET -2.671928 -0.323486 -0.021820
												}
											}
										}
									}
								}
								JOINT mixamorig:RightHandRing1
								{
									OFFSET -7.453640 0.430428 -1.170334
									CHANNELS 3 Xrotation Yrotation Zrotation
									JOINT mixamorig:RightHandRing2
									{
										OFFSET -2.808174 0.165817 -0.117934
										CHANNELS 3 Xrotation Yrotation Zrotation
										JOINT mixamorig:RightHandRing3
										{
											OFFSET -2.730080 0.127754 -0.119542
											CHANNELS 3 Xrotation Yrotation Zrotation
											JOINT mixamorig:RightHandRing4
											{
												OFFSET -2.349426 0.078133 -0.107466
												CHANNELS 3 Xrotation Yrotation Zrotation
												End Site
												{
													OFFSET -2.349503 0.077988 -0.106043
												}
											}
										}
									}
								}
								JOINT mixamorig:RightHandPinky1
								{
									OFFSET -7.364456 0.463486 -2.604800
									CHANNELS 3 Xrotation Yrotation Zrotation
									JOINT mixamorig:RightHandPinky2
									{
										OFFSET -2.430134 0.174614 -0.251330
										CHANNELS 3 Xrotation Yrotation Zrotation
										JOINT mixamorig:RightHandPinky3
										{
											OFFSET -1.953583 0.007492 -0.220999
											CHANNELS 3 Xrotation Yrotation Zrotation
											JOINT mixamorig:RightHandPinky4
											{
												OFFSET -1.582039 0.276558 -0.139972
												CHANNELS 3 Xrotation Yrotation Zrotation
												End Site
												{
													OFFSET -1.581284 0.277252 -0.147002
												}
											}
										}
									}
								}
							}
						}
					}
				}
			}
		}
	}
	JOINT mixamorig:LeftUpLeg
	{
		OFFSET 6.620181 -8.816864 -0.447179
		CHANNELS 3 Xrotation Yrotation Zrotation
		JOINT mixamorig:LeftLeg
		{
			OFFSET 2.748989 -36.076775 0.650871
			CHANNELS 3 Xrotation Yrotation Zrotation
			JOINT mixamorig:LeftFoot
			{
				OFFSET 1.089303 -46.239017 1.019056
				CHANNELS 3 Xrotation Yrotation Zrotation
				JOINT mixamorig:LeftToeBase
				{
					OFFSET -0.371088 -10.380511 12.650617
					CHANNELS 3 Xrotation Yrotation Zrotation
					JOINT mixamorig:LeftToe_End
					{
						OFFSET -0.094684 -0.116785 6.663326
						CHANNELS 3 Xrotation Yrotation Zrotation
						End Site
						{
							OFFSET -0.094684 -0.116785 6.663326
						}
					}
				}
			}
		}
	}
	JOINT mixamorig:RightUpLeg
	{
		OFFSET -6.620174 -8.816818 -0.447182
		CHANNELS 3 Xrotation Yrotation Zrotation
		JOINT mixamorig:RightLeg
		{
			OFFSET -2.748991 -36.076790 0.753614
			CHANNELS 3 Xrotation Yrotation Zrotation
			JOINT mixamorig:RightFoot
			{
				OFFSET -1.089311 -46.239029 0.372114
				CHANNELS 3 Xrotation Yrotation Zrotation
				JOINT mixamorig:RightToeBase
				{
					OFFSET 0.371103 -10.380659 13.284531
					CHANNELS 3 Xrotation Yrotation Zrotation
					JOINT mixamorig:RightToe_End
					{
						OFFSET 0.094689 -0.116865 6.675873
						CHANNELS 3 Xrotation Yrotation Zrotation
						End Site
						{
							OFFSET 0.094687 -0.116865 6.675871
						}
					}
				}
			}
		}
	}
}
MOTION
Frames: 4
Frame Time: 0.016667
0.565092 99.111298 0.447812 -2.051652 8.999298 2.086866 8.038223 -1.275063 -0.080991 4.216538 -0.159220 0.963146 4.218803 -0.146695 0.954680 4.724642 -1.591332 1.283267 5.736312 -6.194964 -0.787228 -0.000001 -0.000000 -0.000000 2.460726 -13.205221 -4.996125 9.756116 -6.923849 -58.110546 -0.985284 -45.273492 -1.401694 -13.228632 10.288136 7.835444 -1.363970 19.913435 13.545205 2.176155 5.049515 -3.362905 -1.267152 -5.336445 -1.339430 0.000003 0.000003 -0.000001 -0.909596 -6.068413 -16.963352 2.380164 4.220599 -19.521985 2.426864 4.171987 -19.919036 0.000001 -0.000001 0.000000 -0.522920 -4.188024 -23.317919 0.594774 4.520119 -17.832200 1.506980 6.203623 -31.785761 0.000000 -0.000001 -0.000000 0.402359 -0.824163 -36.104547 -0.810313 6.087575 -24.844586 -0.647021 6.125493 -25.616901 -0.000000 -0.000002 -0.000000 6.855722 7.223179 -47.303855 -1.162924 3.760884 -32.349063 -1.307987 8.737852 -37.381680 0.000001 0.000001 0.000000 -1.525491 -10.202592 0.534460 10.551434 19.364566 54.261205 -2.758041 70.339494 2.929714 -14.874472 -8.001644 -11.608864 3.100702 -26.294463 -1.904665 3.384772 -7.947304 4.149095 -2.964217 -1.786700 -0.541071 -0.000001 -0.000008 -0.000002 -0.152825 4.308992 11.631136 2.354879 -3.657895 17.658868 3.705707 -4.508161 26.595911 -0.000001 -0.000001 -0.000001 0.062260 3.695474 14.745499 0.632859 -3.675636 16.351599 0.709429 -3.754051 16.438763 -0.000003 0.000001 0.000001 0.850171 0.821753 21.459112 -0.281816 -4.741732 21.908878 -0.785516 -5.031309 22.242251 -0.000003 -0.000001 -0.000000 2.584637 -2.698540 31.872268 -1.552872 -4.794641 20.485674 -1.924460 -7.265471 34.220972 0.000003 -0.000001 0.000003 -16.680420 13.793992 -0.400046 33.930198 11.629350 -1.105189 -15.198658 2.195488 0.982850 -5.242610 0.000013 0.000006 -0.000000 -0.000000 -0.000000 -14.536541 -7.839822 -9.113104 30.975403 -11.424123 -0.046235 -13.431216 -1.038063 7.499586 -3.532971 0.000007 0.000005 -0.000000 -0.000002 0.000000 
0.159316 98.547256 0.411012 -2.605669 8.417199 2.635825 8.358698 -1.563630 0.348170 4.255049 -0.197658 1.052050 4.258008 -0.186082 1.041876 5.128622 -1.264468 0.469608 6.389543 -5.251044 -1.979001 0.000001 0.000000 -0.000000 2.058181 -9.961728 -4.626293 11.444005 -9.095971 -60.414314 -0.837183 -40.703129 -1.302077 -13.302156 9.384505 7.392660 -1.363969 19.913437 13.545208 2.176157 5.049513 -3.362905 -1.267154 -5.336444 -1.339428 -0.000001 0.000000 -0.000002 -0.900397 -6.152363 -16.623162 2.396575 4.240303 -19.627039 2.483109 4.238646 -20.276515 0.000000 -0.000000 0.000001 -0.524735 -4.263212 -23.005329 0.590416 4.506168 -17.767422 1.529962 6.246296 -32.001431 -0.000000 0.000001 -0.000001 0.379286 -0.904627 -35.745874 -0.813737 6.044568 -24.659262 -0.644024 6.151304 -25.729353 -0.000001 0.000001 0.000000 6.754512 7.169059 -46.804319 -1.170524 3.697987 -32.094209 -1.303175 8.763557 -37.486093 -0.000000 0.000003 0.000000 -1.289242 -8.377423 -0.612527 7.191890 19.526918 54.060469 -3.446397 74.033131 3.584303 -14.666006 -6.152921 -11.668394 3.100702 -26.294458 -1.904663 3.384770 -7.947303 4.149097 -2.964216 -1.786700 -0.541065 0.000003 -0.000003 0.000002 -0.153480 4.338826 11.494883 2.345436 -3.647670 17.600574 3.727443 -4.526401 26.717169 0.000002 0.000001 -0.000002 0.060723 3.716604 14.647506 0.627660 -3.660202 16.274949 0.718996 -3.758851 16.477755 -0.000000 -0.000000 -0.000001 0.844774 0.838339 21.376851 -0.284299 -4.723075 21.821601 -0.778965 -5.024345 22.223810 -0.000001 -0.000004 -0.000002 2.573738 -2.683862 31.786085 -1.549318 -4.770951 20.384114 -1.925192 -7.251646 34.163165 -0.000000 0.000003 0.000001 -20.178460 15.148788 1.331373 39.986963 12.173880 -1.806861 -13.139664 0.753545 0.378331 -7.678894 0.000012 0.000003 -0.000000 0.000000 -0.000000 -15.859460 -7.716684 -9.660501 34.124967 -10.988841 -0.138565 -14.893665 -0.959281 7.616582 -2.608287 0.000006 0.000004 -0.000000 -0.000001 0.000000 
-0.243550 97.825081 0.283328 -3.019917 7.819150 2.968545 8.560601 -1.797003 0.902543 4.428607 -0.228993 1.085937 4.431970 -0.219815 1.073801 5.311014 -1.004568 -0.114247 6.791618 -4.389902 -3.067798 0.000001 0.000000 -0.000000 1.640113 -6.870685 -4.272579 13.333336 -10.485385 -62.436610 -0.721131 -36.625745 -1.230825 -13.364005 8.375626 6.816399 -1.363972 19.913437 13.545203 2.176159 5.049519 -3.362896 -1.267154 -5.336449 -1.339429 0.000003 0.000002 -0.000003 -0.889405 -6.247207 -16.238563 2.399968 4.244372 -19.648702 2.535436 4.299902 -20.606810 0.000000 0.000000 -0.000003 -0.526219 -4.343007 -22.673563 0.582142 4.479604 -17.644067 1.547975 6.279446 -32.169334 0.000001 0.000001 0.000006 0.356826 -0.984790 -35.389136 -0.817683 5.992545 -24.435140 -0.642650 6.163078 -25.780762 -0.000001 0.000003 0.000001 6.658552 7.116709 -46.328668 -1.178758 3.626855 -31.806104 -1.302172 8.768856 -37.507646 -0.000000 -0.000002 -0.000000 -1.005701 -6.670846 -1.680526 3.101456 20.466841 53.772973 -4.429717 77.440890 4.536677 -14.342062 -3.994987 -11.554857 3.100701 -26.294456 -1.904664 3.384767 -7.947307 4.149098 -2.964213 -1.786695 -0.541073 0.000003 -0.000004 -0.000001 -0.153936 4.362025 11.389187 2.331893 -3.632989 17.516662 3.743546 -4.539820 26.806823 -0.000001 0.000001 -0.000002 0.059261 3.737386 14.551018 0.621898 -3.643041 16.189946 0.724409 -3.759459 16.490836 0.000001 -0.000002 -0.000002 0.837612 0.860502 21.267044 -0.286684 -4.704693 21.735733 -0.774867 -5.013123 22.183336 -0.000001 -0.000001 0.000000 2.554894 -2.658434 31.636907 -1.546491 -4.752564 20.305319 -1.926202 -7.231751 34.079987 -0.000002 0.000004 0.000001 -24.767728 16.108533 3.796392 46.733240 11.046665 -2.540444 -9.359064 0.470859 0.143673 -14.509977 0.000015 0.000004 -0.000000 -0.000001 -0.000000 -17.800047 -7.812329 -10.213120 37.722247 -10.103760 -0.155833 -16.364771 -0.962983 7.391315 -1.655973 0.000003 0.000006 0.000000 -0.000000 0.000000 
-0.617438 96.944046 0.091776 -3.291617 7.262774 3.033118 8.724183 -1.996733 1.657347 4.693463 -0.258307 1.093249 4.697067 -0.252625 1.078778 5.299516 -0.777036 -0.589492 6.995005 -3.592362 -4.059233 -0.000001 0.000000 0.000000 1.238631 -4.044585 -3.973256 15.661680 -10.781662 -63.980021 -0.637707 -33.401322 -1.183994 -13.397936 7.523256 6.160923 -1.363969 19.913439 13.545204 2.176157 5.049514 -3.362902 -1.267153 -5.336449 -1.339429 0.000001 0.000001 -0.000002 -0.876908 -6.348777 -15.826252 2.389164 4.231427 -19.579692 2.578219 4.349468 -20.875382 -0.000001 0.000001 0.000004 -0.527273 -4.423243 -22.339990 0.570215 4.440900 -17.464608 1.558668 6.299016 -32.268512 0.000001 0.000001 0.000003 0.336313 -1.059714 -35.056342 -0.821912 5.933690 -24.181636 -0.643200 6.158348 -25.760130 -0.000001 -0.000001 -0.000002 6.574299 7.069897 -45.909383 -1.187183 3.550564 -31.497383 -1.305356 8.751983 -37.439030 0.000002 0.000000 -0.000000 -0.691655 -5.111798 -2.612895 -1.747040 22.163742 53.413695 -5.772334 80.289393 5.853544 -13.953039 -1.853820 -11.334498 3.100703 -26.294456 -1.904664 3.384775 -7.947302 4.149095 -2.964214 -1.786703 -0.541070 0.000000 -0.000002 0.000002 -0.154253 4.378322 11.314908 2.315700 -3.615435 17.416485 3.751531 -4.546491 26.851248 -0.000001 -0.000000 -0.000002 0.057820 3.758262 14.454224 0.615930 -3.625206 16.101556 0.724935 -3.755222 16.473656 0.000001 -0.000002 -0.000002 0.828349 0.889248 21.124593 -0.288972 -4.687014 21.653011 -0.773538 -4.998307 22.122913 -0.000002 0.000000 -0.000000 2.527028 -2.620583 31.415278 -1.544518 -4.739653 20.249911 -1.927378 -7.207995 33.980669 0.000001 0.000002 0.000001 -30.308667 16.178920 7.074397 53.816232 8.718502 -3.291033 -3.652681 0.741556 -1.400048 -18.318723 0.000029 0.000011 0.000000 -0.000001 -0.000000 -20.118647 -8.091487 -10.744875 41.545425 -8.970216 -0.068389 -17.830339 -0.921099 7.011787 -0.815154 0.000004 0.000004 -0.000000 -0.000001 0.000000 
